<?xml version="1.0"?>
<svg width="504" height="277" xmlns="http://www.w3.org/2000/svg" xmlns:svg="http://www.w3.org/2000/svg" preserveAspectRatio="xMidYMid meet">
 <g class="layer">
  <title>Layer 1</title>
  <g fill="#000000" id="svg_1" transform="translate(0 277) scale(0.1 -0.1)">
   <path d="m3590,2675l0,-45l-530,0l-530,0l0,-75l0,-75l528,-2l527,-3l0,-75l0,-75l-527,-3l-528,-2l0,-70l0,-70l528,-2l527,-3l0,-75l0,-75l-527,-3l-528,-2l0,-39c0,-35 5,-43 49,-75l48,-36l452,-2l452,-3l-88,-72l-88,-73l-262,0c-144,0 -264,-4 -267,-8c-2,-4 33,-38 80,-75l83,-67l88,0l88,0l-25,-24c-21,-20 -333,-276 -634,-521l-86,-70l0,-443l0,-443l73,3l72,3l3,48l3,47l525,0l524,0l0,75l0,75l-525,0l-525,0l0,75l0,75l525,0l525,0l0,75l0,75l-525,0l-526,0l3,78l3,77l523,3l522,2l0,34c0,28 -8,41 -42,70l-41,36l-459,2l-460,3l89,75l88,75l271,5l271,5l-84,68l-83,67l-85,0c-62,0 -85,3 -85,13c1,6 27,32 58,57c57,45 86,69 462,378l205,168l3,442l2,442l-70,0l-70,0l0,-45z" fill="#ff0000" id="svg_2"/>
   <path d="m635,2515c-229,-51 -345,-206 -345,-462l0,-83l-100,0l-100,0l0,-185l0,-184l98,-3l97,-3l3,-532l2,-533l270,0l270,0l0,535l0,535l140,0l140,0l-2,183l-3,182l-139,3l-138,3l4,65c7,105 50,132 216,133l62,1l0,155c0,180 8,167 -123,191c-101,17 -271,17 -352,-1z" id="svg_3"/>
   <path d="m1704,2467c-430,-522 -543,-1193 -304,-1798c71,-181 152,-318 287,-486l74,-93l159,0c112,0 160,3 160,11c0,7 -22,51 -49,98c-141,246 -252,593 -291,914c-18,142 -8,380 23,552c47,261 124,485 248,724c38,73 69,135 69,137c0,2 -73,4 -162,3l-163,0l-51,-62z" id="svg_4"/>
   <path d="m4122,2478c98,-166 170,-341 246,-608c109,-378 108,-738 -3,-1128c-61,-217 -141,-417 -220,-552c-25,-42 -45,-82 -45,-88c0,-9 44,-12 158,-12l157,1l61,72c223,266 371,596 415,927c14,110 14,342 -1,450c-45,331 -203,680 -417,928l-55,62l-164,0l-163,0l31,-52z" id="svg_5"/>
  </g>
 </g>
</svg>